 http://img863.imageshack.us/img863/8517/thor2011movietrailer.jpg

Country.......: USA
Genre.........: Fanatsy, Adventure, Action, Drama
Date release..: 17.04.2011 [World]
Director......: Kenneth Branagh
Writers.......: Ashley Miller, Zack Stentz
Duration......: 109 min.
More..........: http://www.imdb.com/title/tt0800369
Trailer.......: http://www.imdb.com/video/imdb/vi1431476761
Trailer.......:

Pilot :
The powerful but arrogant warrior Thor is cast out of the fantastic realm of Asgard and sent to live amongst humans on Earth, where he soon becomes one of their finest defenders.

Cats :
Chris Hemsworth   ...   Thor
Natalie Portman ... Jane Foster
Tom Hiddleston ... Loki
Anthony Hopkins ... Odin
Stellan Skarsgard ... Erik Selvig
Kat Dennings ... Darcy Lewis
Clark Gregg ... Agent Coulson
Idris Elba ... Heimdall
Colm Feore ... King Laufey
Ray Stevenson ... Volstagg
Tadanobu Asano ... Hogun
Josh Dallas ... Fandral
Jaimie Alexander ... Sif
Rene Russo ... Frigga
Adriana Barraza ... Isabel Alvarez

Data Technical :
!!! SAMPLE !!!
Audio.....: English
Subtitles.: None
Format                           : AVI
Format/Info                      : Audio Video Interleave
File size                        : 700 MiB
Duration                         : 1h 48mn
Overall bit rate                 : 900 Kbps
Writing application              : VirtualDubMod 1.5.10.2 (build 2542/release)
Writing library                  : VirtualDubMod build 2542/release
Video
ID                               : 0
Format                           : MPEG-4 Visual
Format profile                   : Advanced Simple@L5
Format settings, BVOP            : Yes
Format settings, QPel            : No
Format settings, GMC             : No warppoints
Format settings, Matrix          : Default (H.263)
Muxing mode                      : Packed bitstream
Codec ID                         : XVID
Codec ID/Hint                    : XviD
Duration                         : 1h 48mn
Bit rate                         : 762 Kbps
Width                            : 720 pixels
Height                           : 304 pixels
Display aspect ratio             : 2.35:1
Frame rate                       : 25.000 fps
Color space                      : YUV
Chroma subsampling               : 4:2:0
Bit depth                        : 8 bits
Scan type                        : Progressive
Bits/(Pixel*Frame)               : 0.139
Stream size                      : 593 MiB (85%)
Writing library                  : XviD 1.2.1 (UTC 2008-12-04)
Audio
ID                               : 1
Format                           : MPEG Audio
Format version                   : Version 1
Format profile                   : Layer 3
Codec ID                         : 55
Codec ID/Hint                    : MP3
Duration                         : 1h 48mn
Bit rate mode                    : Constant
Bit rate                         : 128 Kbps
Channel(s)                       : 2 channels
Sampling rate                    : 44.1 KHz
Stream size                      : 99.5 MiB (14%)
Alignment                        : Split accross interleaves
Interleave, duration             : 40 ms (1.00 video frame)
Interleave, preload duration     : 500 ms

Screen : 
http://img199.imageshack.us/img199/4928/thor2011s1.jpg 
http://img189.imageshack.us/img189/2876/thor2011s2.jpg 
http://img577.imageshack.us/img577/8004/thor2011s3.jpg 
http://img580.imageshack.us/img580/5701/thor2011s4.jpg 
http://img842.imageshack.us/img842/6727/thor2011s5.jpg